{
	"asset":{
		"generator":"Khronos glTF Blender I/O v3.5.30",
		"version":"2.0"
	},
	"extensionsUsed":[
		"KHR_materials_specular",
		"KHR_materials_ior"
	],
	"scene":0,
	"scenes":[
		{
			"name":"Scene",
			"nodes":[
				0,
				1
			]
		}
	],
	"nodes":[
		{
			"mesh":0,
			"name":"groundPlane",
			"scale":[
				15.100141525268555,
				1,
				14.17961597442627
			],
			"translation":[
				0,
				-1.0101523399353027,
				0
			]
		},
		{
			"mesh":1,
			"name":"spookyTree",
			"translation":[
				0,
				1,
				0
			]
		}
	],
	"materials":[
		{
			"doubleSided":true,
			"name":"Material.001",
			"pbrMetallicRoughness":{
				"baseColorFactor":[
					0.043126653879880905,
					0.34238341450691223,
					0.05980450287461281,
					1
				],
				"metallicFactor":0,
				"roughnessFactor":0.5
			}
		},
		{
			"doubleSided":true,
			"extensions":{
				"KHR_materials_specular":{
					"specularColorFactor":[
						0.3764059481107095,
						0.3764059481107095,
						0.3764059481107095
					]
				},
				"KHR_materials_ior":{
					"ior":1.4500000476837158
				}
			},
			"name":"tree",
			"pbrMetallicRoughness":{
				"baseColorFactor":[
					0.16264168918132782,
					0.10723588615655899,
					0.06600532680749893,
					1
				],
				"metallicFactor":0,
				"roughnessFactor":0.658730149269104
			}
		}
	],
	"meshes":[
		{
			"name":"Cube.001",
			"primitives":[
				{
					"attributes":{
						"POSITION":0,
						"TEXCOORD_0":1,
						"NORMAL":2
					},
					"indices":3,
					"material":0
				}
			]
		},
		{
			"name":"Cylinder",
			"primitives":[
				{
					"attributes":{
						"POSITION":4,
						"TEXCOORD_0":5,
						"NORMAL":6
					},
					"indices":7,
					"material":1
				}
			]
		}
	],
	"accessors":[
		{
			"bufferView":0,
			"componentType":5126,
			"count":24,
			"max":[
				1,
				1,
				1
			],
			"min":[
				-1,
				-1,
				-1
			],
			"type":"VEC3"
		},
		{
			"bufferView":1,
			"componentType":5126,
			"count":24,
			"type":"VEC2"
		},
		{
			"bufferView":2,
			"componentType":5126,
			"count":24,
			"type":"VEC3"
		},
		{
			"bufferView":3,
			"componentType":5123,
			"count":36,
			"type":"SCALAR"
		},
		{
			"bufferView":4,
			"componentType":5126,
			"count":960,
			"max":[
				2.9902734756469727,
				4.893411159515381,
				3.8843209743499756
			],
			"min":[
				-3.057373523712158,
				-1.2993566989898682,
				-3.1095821857452393
			],
			"type":"VEC3"
		},
		{
			"bufferView":5,
			"componentType":5126,
			"count":960,
			"type":"VEC2"
		},
		{
			"bufferView":6,
			"componentType":5126,
			"count":960,
			"type":"VEC3"
		},
		{
			"bufferView":7,
			"componentType":5123,
			"count":5148,
			"type":"SCALAR"
		}
	],
	"bufferViews":[
		{
			"buffer":0,
			"byteLength":288,
			"byteOffset":0,
			"target":34962
		},
		{
			"buffer":0,
			"byteLength":192,
			"byteOffset":288,
			"target":34962
		},
		{
			"buffer":0,
			"byteLength":288,
			"byteOffset":480,
			"target":34962
		},
		{
			"buffer":0,
			"byteLength":72,
			"byteOffset":768,
			"target":34963
		},
		{
			"buffer":0,
			"byteLength":11520,
			"byteOffset":840,
			"target":34962
		},
		{
			"buffer":0,
			"byteLength":7680,
			"byteOffset":12360,
			"target":34962
		},
		{
			"buffer":0,
			"byteLength":11520,
			"byteOffset":20040,
			"target":34962
		},
		{
			"buffer":0,
			"byteLength":10296,
			"byteOffset":31560,
			"target":34963
		}
	],
	"buffers":[
		{
			"byteLength":41856,
			"uri":"spookytree.bin"
		}
	]
}
